<?xml version="1.0" standalone="no"?>
<!DOCTYPE svg PUBLIC "-//W3C//DTD SVG 20010904//EN"
 "http://www.w3.org/TR/2001/REC-SVG-20010904/DTD/svg10.dtd">
<svg version="1.0" xmlns="http://www.w3.org/2000/svg"
 width="500.000000pt" height="500.000000pt" viewBox="0 0 500.000000 500.000000"
 preserveAspectRatio="xMidYMid meet">

<g transform="translate(0.000000,500.000000) scale(0.100000,-0.100000)"
fill="#000000" stroke="none">
<path d="M0 2500 l0 -2500 1243 0 c1221 0 1241 0 1212 19 -44 28 -1523 1515
-1582 1591 -263 339 -412 726 -444 1160 -58 768 345 1530 1018 1926 811 478
1861 343 2520 -322 176 -178 291 -339 399 -559 311 -632 275 -1383 -94 -1994
-111 -185 -181 -261 -946 -1030 -413 -414 -764 -762 -781 -772 -29 -19 -9 -19
1213 -19 l1242 0 0 2500 0 2500 -2500 0 -2500 0 0 -2500z"/>
<path d="M2220 4770 c-225 -38 -349 -76 -536 -165 -365 -172 -690 -491 -874
-855 -258 -511 -260 -1150 -7 -1670 68 -139 186 -315 291 -431 46 -52 382
-391 745 -754 l661 -660 681 680 c374 374 715 721 757 770 401 475 542 1098
386 1704 -103 398 -352 768 -690 1024 -255 193 -603 331 -926 366 -144 16
-366 12 -488 -9z m655 -969 c51 -24 79 -54 259 -280 81 -101 166 -199 190
-218 32 -25 114 -59 292 -124 137 -50 257 -98 267 -107 25 -22 47 -66 47 -92
0 -12 8 -34 19 -48 96 -136 82 -350 -32 -477 l-36 -40 -194 -3 -194 -3 -6 50
c-18 151 -152 281 -305 297 -180 19 -337 -94 -379 -274 l-17 -72 -397 0 -396
0 -6 51 c-18 146 -155 280 -304 295 -181 19 -337 -93 -381 -274 l-17 -72 -63
0 c-66 0 -115 18 -126 45 -3 9 -6 142 -6 296 0 300 3 322 52 367 14 13 79 43
144 68 143 54 186 75 240 119 22 19 112 129 199 245 134 179 166 216 209 241
l51 29 425 0 c393 0 428 -2 465 -19z m-1108 -1147 c96 -46 147 -130 147 -244
0 -64 -4 -83 -29 -128 -52 -95 -132 -142 -242 -142 -159 0 -272 113 -273 270
0 209 207 336 397 244z m1500 0 c96 -46 147 -130 147 -244 1 -65 -3 -82 -28
-128 -53 -96 -133 -142 -243 -142 -155 1 -261 100 -271 255 -6 90 21 156 84
215 90 83 198 98 311 44z"/>
<path d="M1988 3694 c-15 -8 -97 -107 -182 -219 l-155 -205 190 0 189 0 0 220
c0 121 -3 220 -7 220 -5 -1 -20 -7 -35 -16z"/>
<path d="M2160 3490 l0 -220 516 0 516 0 -34 43 c-19 23 -93 116 -165 208 -72
91 -143 170 -158 177 -18 9 -119 12 -350 12 l-325 0 0 -220z"/>
<path d="M3087 3214 c-4 -4 -7 -98 -7 -209 0 -168 3 -205 15 -215 12 -10 18
-10 30 0 13 11 15 44 13 219 -3 199 -4 206 -23 209 -12 2 -24 0 -28 -4z"/>
<path d="M2147 3173 c-11 -10 -8 -681 2 -687 5 -4 16 -3 25 0 14 5 16 44 16
344 0 299 -2 339 -16 344 -19 7 -19 7 -27 -1z"/>
<path d="M2313 3098 c-22 -29 -23 -38 -3 -58 16 -16 33 -20 81 -20 33 0 69 5
80 10 21 12 25 50 7 68 -16 16 -152 16 -165 0z"/>
<path d="M3910 2789 c-14 -56 -9 -137 11 -184 l12 -30 13 40 c7 22 13 64 13
94 1 55 -16 131 -30 131 -4 0 -13 -23 -19 -51z"/>
<path d="M1562 2540 c-130 -80 -73 -280 81 -280 65 0 113 30 138 84 23 52 23
80 0 132 -36 78 -143 110 -219 64z"/>
<path d="M3059 2537 c-126 -84 -67 -277 84 -277 33 0 61 7 85 22 36 22 72 85
72 128 0 43 -36 106 -72 128 -49 30 -124 30 -169 -1z"/>
</g>
</svg>
