<?xml version="1.0" standalone="no"?>
<!DOCTYPE svg PUBLIC "-//W3C//DTD SVG 20010904//EN"
 "http://www.w3.org/TR/2001/REC-SVG-20010904/DTD/svg10.dtd">
<svg version="1.0" xmlns="http://www.w3.org/2000/svg"
 width="1080.000000pt" height="1080.000000pt" viewBox="0 0 1080.000000 1080.000000"
 preserveAspectRatio="xMidYMid meet">

<g transform="translate(0.000000,1080.000000) scale(0.100000,-0.100000)"
fill="#000000" stroke="none">
<path d="M4990 8460 c-23 -14 -5 -22 34 -14 21 3 36 7 34 9 -12 9 -56 13 -68
5z"/>
<path d="M5760 8450 c36 -11 50 -11 50 0 0 6 -17 10 -37 9 -34 -1 -35 -2 -13
-9z"/>
<path d="M4860 8430 c0 -13 40 -13 60 0 11 7 5 10 -22 10 -21 0 -38 -4 -38
-10z"/>
<path d="M5875 8430 c28 -12 55 -12 55 0 0 6 -17 10 -37 9 -31 0 -34 -2 -18
-9z"/>
<path d="M4808 8413 c7 -3 16 -2 19 1 4 3 -2 6 -13 5 -11 0 -14 -3 -6 -6z"/>
<path d="M4690 8390 c0 -5 9 -10 19 -10 11 0 23 5 26 10 4 6 -5 10 -19 10 -14
0 -26 -4 -26 -10z"/>
<path d="M6065 8390 c3 -5 15 -10 26 -10 10 0 19 5 19 10 0 6 -12 10 -26 10
-14 0 -23 -4 -19 -10z"/>
<path d="M4620 8370 c0 -5 9 -10 20 -10 11 0 20 5 20 10 0 6 -9 10 -20 10 -11
0 -20 -4 -20 -10z"/>
<path d="M6140 8370 c0 -6 7 -10 15 -10 8 0 15 2 15 4 0 2 -7 6 -15 10 -8 3
-15 1 -15 -4z"/>
<path d="M4498 8323 c7 -3 16 -2 19 1 4 3 -2 6 -13 5 -11 0 -14 -3 -6 -6z"/>
<path d="M4430 8300 c0 -13 11 -13 30 0 12 8 11 10 -7 10 -13 0 -23 -4 -23
-10z"/>
<path d="M6445 8260 c3 -5 11 -10 16 -10 6 0 7 5 4 10 -3 6 -11 10 -16 10 -6
0 -7 -4 -4 -10z"/>
<path d="M5110 8235 c-52 -7 -120 -18 -150 -24 -30 -6 -74 -14 -98 -18 -23 -3
-45 -10 -48 -14 -3 -5 -16 -9 -30 -9 -13 0 -32 -4 -42 -9 -9 -4 -55 -20 -100
-35 -46 -15 -105 -36 -130 -47 -26 -12 -56 -25 -67 -29 -65 -26 -143 -65 -201
-100 -36 -22 -68 -40 -71 -40 -7 0 -85 -54 -193 -134 -95 -69 -310 -276 -385
-371 -22 -27 -42 -52 -46 -55 -3 -3 -30 -39 -61 -80 -105 -143 -212 -336 -273
-495 -15 -38 -30 -79 -35 -90 -15 -40 -54 -176 -79 -285 -61 -254 -61 -705 -1
-967 23 -99 33 -140 41 -168 96 -328 236 -592 457 -861 99 -119 1779 -1804
1800 -1804 12 0 1659 1641 1737 1731 22 25 54 63 70 84 17 21 35 43 40 49 118
129 314 489 376 691 6 22 15 49 19 60 12 32 39 136 59 230 56 259 56 616 1
915 -15 77 -42 181 -76 285 -27 85 -52 149 -93 238 -17 37 -31 70 -31 72 0 2
-20 39 -45 81 -25 41 -45 80 -45 85 0 5 -4 9 -10 9 -5 0 -10 5 -10 11 0 12
-115 180 -147 214 -10 11 -35 41 -55 67 -116 143 -316 319 -518 455 -64 43
-256 145 -320 170 -37 15 -71 29 -110 46 -73 32 -158 59 -267 86 -21 5 -56 14
-78 20 -22 5 -60 13 -85 16 -25 3 -94 12 -155 20 -132 18 -410 17 -545 0z
m760 -1224 c61 -31 101 -76 349 -389 199 -254 180 -241 531 -367 36 -13 103
-38 150 -55 47 -18 96 -35 110 -40 49 -15 107 -49 123 -73 8 -13 21 -43 28
-68 7 -24 33 -87 58 -139 l46 -95 -1 -120 c0 -117 -1 -122 -37 -200 -39 -83
-82 -136 -129 -161 -21 -11 -77 -14 -246 -14 -244 0 -226 -6 -237 76 -29 197
-214 354 -418 354 -94 0 -171 -23 -249 -75 -102 -68 -162 -161 -183 -285 l-11
-65 -487 -3 c-548 -3 -498 -10 -511 78 -12 77 -48 148 -107 214 -79 86 -192
136 -313 136 -104 0 -162 -18 -256 -81 -92 -62 -155 -162 -174 -279 l-11 -65
-86 -3 c-87 -3 -87 -3 -123 31 l-36 34 0 357 c0 388 0 386 59 449 31 33 46 41
211 102 151 56 161 60 230 106 74 49 80 57 295 344 189 253 206 272 273 306
35 17 70 18 567 18 l530 1 55 -29z m-1392 -1415 c68 -34 130 -97 162 -161 21
-43 25 -64 25 -145 0 -80 -4 -103 -24 -143 -30 -62 -93 -125 -155 -157 -44
-22 -62 -25 -155 -25 -98 0 -110 2 -159 29 -57 31 -120 96 -147 152 -40 85
-39 203 4 298 26 57 118 139 184 165 76 31 192 25 265 -13z m1858 1 c65 -33
135 -102 165 -164 19 -40 23 -64 24 -143 0 -84 -3 -101 -27 -145 -33 -64 -93
-124 -154 -156 -42 -21 -61 -24 -153 -24 -96 0 -111 3 -156 27 -119 63 -193
194 -182 323 10 134 102 252 234 301 61 23 186 13 249 -19z"/>
<path d="M4761 6882 c-30 -19 -93 -95 -222 -267 -98 -132 -177 -244 -176 -250
6 -16 439 -19 449 -3 10 17 10 519 0 535 -6 10 -19 6 -51 -15z"/>
<path d="M4987 6903 c-4 -3 -7 -127 -7 -274 0 -234 2 -268 16 -273 25 -10
1232 -7 1238 3 7 11 -6 30 -204 278 -181 229 -178 226 -235 253 -37 18 -66 20
-421 20 -209 0 -384 -3 -387 -7z"/>
<path d="M6120 6274 c-7 -18 -10 -114 -8 -259 3 -248 9 -276 49 -254 18 9 19
23 17 272 l-3 262 -22 3 c-17 3 -26 -4 -33 -24z"/>
<path d="M4950 6215 c-11 -29 -14 -741 -4 -793 7 -34 29 -48 50 -31 12 10 14
83 12 428 l-3 416 -22 3 c-17 3 -26 -3 -33 -23z"/>
<path d="M5157 6142 c-24 -26 -21 -57 8 -76 30 -20 171 -22 196 -3 28 21 32
54 10 76 -18 18 -34 21 -109 21 -73 0 -92 -3 -105 -18z"/>
<path d="M7156 5809 c-2 -8 -9 -29 -15 -48 -6 -19 -11 -62 -11 -96 0 -34 5
-77 11 -96 6 -19 13 -40 15 -48 8 -25 31 20 43 83 8 43 8 77 -1 127 -11 67
-33 107 -42 78z"/>
<path d="M4310 5484 c-88 -29 -102 -38 -132 -82 -27 -39 -32 -55 -32 -107 0
-77 22 -118 88 -162 71 -48 137 -45 219 11 70 48 89 178 36 259 -33 51 -133
96 -179 81z"/>
<path d="M6136 5475 c-57 -20 -87 -46 -113 -95 -46 -87 -18 -189 71 -247 81
-55 173 -39 244 41 36 41 47 88 38 154 -15 109 -139 185 -240 147z"/>
<path d="M6578 8193 c7 -3 16 -2 19 1 4 3 -2 6 -13 5 -11 0 -14 -3 -6 -6z"/>
<path d="M4045 8110 c-3 -5 -1 -10 4 -10 6 0 11 5 11 10 0 6 -2 10 -4 10 -3 0
-8 -4 -11 -10z"/>
<path d="M3850 7980 c0 -5 5 -10 10 -10 6 0 10 5 10 10 0 6 -4 10 -10 10 -5 0
-10 -4 -10 -10z"/>
<path d="M7085 7850 c3 -5 8 -10 11 -10 2 0 4 5 4 10 0 6 -5 10 -11 10 -5 0
-7 -4 -4 -10z"/>
<path d="M7350 7593 c0 -5 11 -20 25 -33 14 -13 25 -21 25 -17 0 3 -11 18 -25
33 -14 15 -25 23 -25 17z"/>
<path d="M3265 7381 c-3 -5 -1 -12 5 -16 5 -3 10 1 10 9 0 18 -6 21 -15 7z"/>
<path d="M3220 7310 c0 -5 5 -10 10 -10 6 0 10 5 10 10 0 6 -4 10 -10 10 -5 0
-10 -4 -10 -10z"/>
<path d="M7580 7270 c0 -5 5 -10 10 -10 6 0 10 5 10 10 0 6 -4 10 -10 10 -5 0
-10 -4 -10 -10z"/>
<path d="M3180 7239 c0 -5 5 -7 10 -4 6 3 10 8 10 11 0 2 -4 4 -10 4 -5 0 -10
-5 -10 -11z"/>
<path d="M7625 7200 c3 -5 8 -10 11 -10 2 0 4 5 4 10 0 6 -5 10 -11 10 -5 0
-7 -4 -4 -10z"/>
<path d="M3140 7170 c0 -11 2 -20 4 -20 2 0 6 9 9 20 3 11 1 20 -4 20 -5 0 -9
-9 -9 -20z"/>
<path d="M7670 7120 c0 -5 5 -10 11 -10 5 0 7 5 4 10 -3 6 -8 10 -11 10 -2 0
-4 -4 -4 -10z"/>
<path d="M3090 7084 c0 -8 5 -12 10 -9 6 3 10 10 10 16 0 5 -4 9 -10 9 -5 0
-10 -7 -10 -16z"/>
<path d="M3077 7053 c-4 -3 -7 -11 -7 -17 0 -6 5 -5 12 2 6 6 9 14 7 17 -3 3
-9 2 -12 -2z"/>
<path d="M7710 7046 c0 -8 5 -18 10 -21 6 -3 10 1 10 9 0 8 -4 18 -10 21 -5 3
-10 -1 -10 -9z"/>
<path d="M3050 6999 c0 -5 5 -7 10 -4 6 3 10 8 10 11 0 2 -4 4 -10 4 -5 0 -10
-5 -10 -11z"/>
<path d="M7750 6951 c0 -6 5 -13 10 -16 6 -3 10 1 10 9 0 9 -4 16 -10 16 -5 0
-10 -4 -10 -9z"/>
<path d="M3011 6904 c0 -11 3 -14 6 -6 3 7 2 16 -1 19 -3 4 -6 -2 -5 -13z"/>
<path d="M7777 6890 c3 -11 7 -20 9 -20 2 0 4 9 4 20 0 11 -4 20 -9 20 -5 0
-7 -9 -4 -20z"/>
<path d="M2991 6844 c0 -11 3 -14 6 -6 3 7 2 16 -1 19 -3 4 -6 -2 -5 -13z"/>
<path d="M7801 6834 c0 -11 3 -14 6 -6 3 7 2 16 -1 19 -3 4 -6 -2 -5 -13z"/>
<path d="M2960 6800 c0 -11 5 -20 10 -20 6 0 10 9 10 20 0 11 -4 20 -10 20 -5
0 -10 -9 -10 -20z"/>
<path d="M7820 6783 c0 -12 5 -25 10 -28 13 -8 13 15 0 35 -8 12 -10 11 -10
-7z"/>
<path d="M2940 6724 c0 -8 5 -12 10 -9 6 3 10 10 10 16 0 5 -4 9 -10 9 -5 0
-10 -7 -10 -16z"/>
<path d="M7840 6721 c0 -12 5 -21 10 -21 6 0 10 6 10 14 0 8 -4 18 -10 21 -5
3 -10 -3 -10 -14z"/>
<path d="M2920 6663 c0 -22 2 -25 10 -13 13 20 13 40 0 40 -5 0 -10 -12 -10
-27z"/>
<path d="M7860 6641 c0 -6 5 -13 10 -16 6 -3 10 1 10 9 0 9 -4 16 -10 16 -5 0
-10 -4 -10 -9z"/>
<path d="M2900 6589 c0 -11 5 -17 10 -14 6 3 10 13 10 21 0 8 -4 14 -10 14 -5
0 -10 -9 -10 -21z"/>
<path d="M7881 6588 c0 -7 4 -22 9 -33 7 -17 9 -15 9 13 1 17 -3 32 -9 32 -5
0 -10 -6 -9 -12z"/>
<path d="M2880 6518 c0 -49 5 -47 13 5 3 20 2 37 -4 37 -5 0 -9 -19 -9 -42z"/>
<path d="M7906 6501 c-4 -5 -2 -20 3 -33 9 -21 10 -21 10 10 1 32 -3 39 -13
23z"/>
<path d="M2854 6427 c-2 -7 0 -24 5 -38 9 -22 10 -21 10 14 1 37 -5 48 -15 24z"/>
<path d="M7931 6380 c0 -35 3 -50 8 -40 5 8 5 33 1 55 -8 40 -8 40 -9 -15z"/>
<path d="M2842 6339 c-1 -9 -5 -38 -8 -65 -5 -38 -4 -46 5 -38 8 7 11 32 8 65
-2 30 -4 47 -5 38z"/>
<path d="M7950 6226 c0 -25 5 -46 10 -46 6 0 10 18 10 39 0 22 -4 43 -10 46
-6 4 -10 -12 -10 -39z"/>
<path d="M2817 6163 c-11 -11 -8 -481 3 -488 7 -4 10 80 10 244 0 138 -1 251
-3 251 -2 0 -7 -3 -10 -7z"/>
<path d="M7972 6060 c0 -19 2 -27 5 -17 2 9 2 25 0 35 -3 9 -5 1 -5 -18z"/>
<path d="M7973 5715 c0 -27 2 -38 4 -22 2 15 2 37 0 50 -2 12 -4 0 -4 -28z"/>
<path d="M7950 5579 c0 -24 4 -38 10 -34 6 3 10 22 10 41 0 19 -4 34 -10 34
-5 0 -10 -18 -10 -41z"/>
<path d="M2830 5574 c0 -18 18 -149 26 -183 4 -18 8 -21 13 -12 5 7 4 29 -2
50 -5 20 -12 64 -14 99 -3 34 -9 62 -14 62 -5 0 -9 -7 -9 -16z"/>
<path d="M7930 5436 c0 -20 2 -36 4 -36 8 0 12 61 4 66 -4 3 -8 -11 -8 -30z"/>
<path d="M7907 5340 c-3 -11 -1 -23 4 -26 5 -3 9 6 9 20 0 31 -6 34 -13 6z"/>
<path d="M2880 5302 c0 -22 5 -44 10 -47 6 -3 10 -17 10 -31 0 -13 5 -24 11
-24 7 0 9 8 4 23 -3 12 -11 42 -16 66 -12 59 -19 64 -19 13z"/>
<path d="M7888 5240 c-7 -24 -3 -38 8 -28 3 4 4 17 2 30 l-3 23 -7 -25z"/>
<path d="M7865 5180 c-3 -5 -1 -10 4 -10 6 0 11 5 11 10 0 6 -2 10 -4 10 -3 0
-8 -4 -11 -10z"/>
<path d="M2920 5153 c0 -18 5 -33 10 -33 13 0 13 30 0 50 -7 11 -10 7 -10 -17z"/>
<path d="M2940 5086 c0 -14 5 -26 10 -26 6 0 10 9 10 19 0 11 -4 23 -10 26 -6
4 -10 -5 -10 -19z"/>
<path d="M7845 5099 c-4 -6 -5 -12 -2 -15 2 -3 7 2 10 11 7 17 1 20 -8 4z"/>
<path d="M2960 5027 c0 -23 33 -82 38 -68 2 7 -1 18 -7 24 -6 6 -11 21 -11 34
0 13 -4 23 -10 23 -5 0 -10 -6 -10 -13z"/>
<path d="M3010 4905 c0 -8 4 -15 10 -15 5 0 7 7 4 15 -4 8 -8 15 -10 15 -2 0
-4 -7 -4 -15z"/>
<path d="M3030 4863 c0 -13 5 -23 10 -23 13 0 13 11 0 30 -8 12 -10 11 -10 -7z"/>
<path d="M3050 4811 c0 -12 5 -21 10 -21 6 0 10 6 10 14 0 8 -4 18 -10 21 -5
3 -10 -3 -10 -14z"/>
<path d="M3070 4771 c0 -5 5 -13 10 -16 6 -3 10 -2 10 4 0 5 -4 13 -10 16 -5
3 -10 2 -10 -4z"/>
<path d="M3090 4726 c0 -9 5 -16 10 -16 6 0 10 4 10 9 0 6 -4 13 -10 16 -5 3
-10 -1 -10 -9z"/>
<path d="M3130 4654 c0 -3 9 -17 20 -31 23 -29 25 -25 8 12 -10 22 -28 35 -28
19z"/>
<path d="M3180 4570 c0 -5 5 -10 11 -10 5 0 7 5 4 10 -3 6 -8 10 -11 10 -2 0
-4 -4 -4 -10z"/>
<path d="M7585 4550 c-3 -5 -1 -10 4 -10 6 0 11 5 11 10 0 6 -2 10 -4 10 -3 0
-8 -4 -11 -10z"/>
<path d="M3220 4511 c0 -5 5 -13 10 -16 6 -3 10 -2 10 4 0 5 -4 13 -10 16 -5
3 -10 2 -10 -4z"/>
<path d="M3265 4440 c3 -5 8 -10 11 -10 2 0 4 5 4 10 0 6 -5 10 -11 10 -5 0
-7 -4 -4 -10z"/>
<path d="M3310 4380 c0 -5 5 -10 11 -10 5 0 7 5 4 10 -3 6 -8 10 -11 10 -2 0
-4 -4 -4 -10z"/>
<path d="M3330 4350 c0 -5 5 -10 11 -10 5 0 7 5 4 10 -3 6 -8 10 -11 10 -2 0
-4 -4 -4 -10z"/>
<path d="M3380 4294 c0 -13 18 -39 24 -34 2 3 -2 14 -10 24 -8 11 -14 16 -14
10z"/>
<path d="M3590 4059 c0 -8 9 -20 20 -27 11 -7 20 -10 20 -7 0 3 -9 15 -20 27
-14 16 -20 18 -20 7z"/>
<path d="M6995 3860 c-3 -5 -1 -10 4 -10 6 0 11 5 11 10 0 6 -2 10 -4 10 -3 0
-8 -4 -11 -10z"/>
<path d="M3810 3840 c0 -5 5 -10 11 -10 5 0 7 5 4 10 -3 6 -8 10 -11 10 -2 0
-4 -4 -4 -10z"/>
<path d="M3841 3803 c16 -21 31 -33 41 -33 5 0 -2 11 -14 25 -24 28 -48 35
-27 8z"/>
<path d="M6920 3785 c-7 -9 -8 -15 -2 -15 5 0 12 7 16 15 3 8 4 15 2 15 -2 0
-9 -7 -16 -15z"/>
<path d="M4035 3610 c21 -22 43 -40 48 -40 5 0 -10 18 -33 40 -23 22 -45 40
-48 40 -3 0 12 -18 33 -40z"/>
<path d="M4135 3510 c3 -5 8 -10 11 -10 2 0 4 5 4 10 0 6 -5 10 -11 10 -5 0
-7 -4 -4 -10z"/>
<path d="M4260 3386 c0 -8 7 -16 15 -20 13 -4 14 -2 5 14 -13 23 -20 26 -20 6z"/>
<path d="M4480 3170 c0 -5 5 -10 11 -10 5 0 7 5 4 10 -3 6 -8 10 -11 10 -2 0
-4 -4 -4 -10z"/>
<path d="M4670 2979 c0 -8 9 -20 20 -27 11 -7 20 -10 20 -7 0 3 -9 15 -20 27
-14 16 -20 18 -20 7z"/>
<path d="M6045 2910 c-3 -5 -2 -10 4 -10 5 0 13 5 16 10 3 6 2 10 -4 10 -5 0
-13 -4 -16 -10z"/>
<path d="M4890 2765 c0 -6 9 -17 20 -25 11 -8 20 -20 20 -26 0 -11 29 -29 35
-22 2 2 -15 21 -36 43 -21 22 -39 35 -39 30z"/>
<path d="M5020 2630 c0 -5 5 -10 11 -10 5 0 7 5 4 10 -3 6 -8 10 -11 10 -2 0
-4 -4 -4 -10z"/>
<path d="M5754 2618 l-19 -23 23 19 c12 11 22 21 22 23 0 8 -8 2 -26 -19z"/>
<path d="M5705 2570 c-3 -5 -1 -10 4 -10 6 0 11 5 11 10 0 6 -2 10 -4 10 -3 0
-8 -4 -11 -10z"/>
<path d="M5085 2560 c3 -5 8 -10 11 -10 2 0 4 5 4 10 0 6 -5 10 -11 10 -5 0
-7 -4 -4 -10z"/>
<path d="M5630 2495 c-11 -13 -10 -14 4 -9 9 3 16 10 16 15 0 13 -6 11 -20 -6z"/>
<path d="M5210 2445 c0 -15 113 -125 128 -125 7 0 -4 15 -25 32 -21 18 -53 48
-70 67 -18 19 -33 31 -33 26z"/>
<path d="M5495 2360 c-10 -11 -15 -20 -11 -20 4 0 16 9 28 20 12 11 17 20 11
20 -5 0 -18 -9 -28 -20z"/>
<path d="M5385 2300 c3 -5 12 -7 20 -3 21 7 19 13 -6 13 -11 0 -18 -4 -14 -10z"/>
</g>
</svg>
