<?xml version="1.0" standalone="no"?>
<!DOCTYPE svg PUBLIC "-//W3C//DTD SVG 20010904//EN"
 "http://www.w3.org/TR/2001/REC-SVG-20010904/DTD/svg10.dtd">
<svg version="1.0" xmlns="http://www.w3.org/2000/svg"
 width="500.000000pt" height="500.000000pt" viewBox="0 0 500.000000 500.000000"
 preserveAspectRatio="xMidYMid meet">

<g transform="translate(0.000000,500.000000) scale(0.100000,-0.100000)"
fill="#000000" stroke="none">
<path d="M1934 3791 c-43 -25 -75 -62 -209 -241 -87 -116 -177 -226 -199 -245
-54 -44 -97 -65 -240 -119 -65 -25 -130 -55 -144 -68 -49 -45 -52 -67 -52
-367 0 -154 3 -287 6 -296 11 -27 60 -45 126 -45 l63 0 17 72 c44 181 200 293
381 274 149 -15 286 -149 304 -295 l6 -51 396 0 397 0 17 72 c42 180 199 293
379 274 153 -16 287 -146 305 -297 l6 -50 194 3 194 3 36 40 c114 127 128 341
32 477 -11 14 -19 36 -19 48 0 26 -22 70 -47 92 -10 9 -130 57 -267 107 -178
65 -260 99 -292 124 -24 19 -109 117 -190 218 -180 226 -208 256 -259 280 -37
17 -72 19 -465 19 l-425 0 -51 -29z m96 -301 l0 -220 -189 0 -190 0 155 205
c134 178 185 233 217 235 4 0 7 -99 7 -220z m805 208 c15 -7 86 -86 158 -177
72 -92 146 -185 165 -208 l34 -43 -516 0 -516 0 0 220 0 220 325 0 c231 0 332
-3 350 -12z m303 -689 c2 -175 0 -208 -13 -219 -12 -10 -18 -10 -30 0 -12 10
-15 47 -15 215 0 111 3 205 7 209 4 4 16 6 28 4 19 -3 20 -10 23 -209z m-964
165 c14 -5 16 -45 16 -344 0 -300 -2 -339 -16 -344 -9 -3 -20 -4 -25 0 -10 6
-13 677 -2 687 8 8 8 8 27 1z m304 -76 c18 -18 14 -56 -7 -68 -11 -5 -47 -10
-80 -10 -48 0 -65 4 -81 20 -20 20 -19 29 3 58 13 16 149 16 165 0z m1470
-297 c15 -49 14 -135 -2 -186 l-13 -40 -12 30 c-20 47 -25 128 -11 184 6 28
15 51 19 51 4 0 13 -17 19 -39z"/>
<path d="M1585 2681 c-132 -34 -215 -139 -215 -271 1 -157 114 -270 273 -270
110 0 190 47 242 142 25 45 29 64 29 128 0 80 -17 126 -69 188 -51 61 -183
103 -260 83z m143 -143 c36 -22 72 -85 72 -128 0 -43 -36 -106 -72 -128 -105
-65 -238 10 -238 133 0 114 137 185 238 123z"/>
<path d="M3090 2681 c-59 -14 -88 -29 -134 -71 -63 -59 -90 -125 -84 -215 10
-155 116 -254 271 -255 110 0 190 46 243 142 25 46 29 63 28 128 0 80 -17 127
-69 188 -51 61 -174 101 -255 83z m138 -143 c36 -22 72 -85 72 -128 0 -43 -36
-106 -72 -128 -102 -63 -238 10 -238 128 0 118 136 191 238 128z"/>
</g>
</svg>
